<mxfile host="app.diagrams.net" modified="2023-09-02T16:29:21.540Z" agent="Mozilla/5.0 (X11; Linux x86_64) AppleWebKit/537.36 (KHTML, like Gecko) Chrome/116.0.0.0 Safari/537.36" etag="RBo64HRcnJ0QaM0YH_mC" version="21.7.2" type="device">
  <diagram name="Page-1" id="929967ad-93f9-6ef4-fab6-5d389245f69c">
    <mxGraphModel dx="1434" dy="806" grid="1" gridSize="10" guides="1" tooltips="1" connect="1" arrows="1" fold="1" page="1" pageScale="1.5" pageWidth="1169" pageHeight="826" background="none" math="0" shadow="0">
      <root>
        <mxCell id="0" style=";html=1;" />
        <mxCell id="1" style=";html=1;" parent="0" />
        <mxCell id="FHSyw0mNN9q4Sl2Mrk4T-1" value="" style="rounded=0;whiteSpace=wrap;html=1;" vertex="1" parent="1">
          <mxGeometry x="450" y="30" width="1250" height="600" as="geometry" />
        </mxCell>
        <mxCell id="FHSyw0mNN9q4Sl2Mrk4T-9" value="" style="edgeStyle=orthogonalEdgeStyle;rounded=0;orthogonalLoop=1;jettySize=auto;html=1;" edge="1" parent="1" source="FHSyw0mNN9q4Sl2Mrk4T-2" target="FHSyw0mNN9q4Sl2Mrk4T-8">
          <mxGeometry relative="1" as="geometry" />
        </mxCell>
        <mxCell id="FHSyw0mNN9q4Sl2Mrk4T-2" value="Selects the City" style="ellipse;whiteSpace=wrap;html=1;" vertex="1" parent="1">
          <mxGeometry x="580" y="240" width="120" height="80" as="geometry" />
        </mxCell>
        <mxCell id="FHSyw0mNN9q4Sl2Mrk4T-7" style="edgeStyle=orthogonalEdgeStyle;rounded=0;orthogonalLoop=1;jettySize=auto;html=1;exitX=1;exitY=0.3333333333333333;exitDx=0;exitDy=0;exitPerimeter=0;entryX=0.033;entryY=0.4;entryDx=0;entryDy=0;entryPerimeter=0;" edge="1" parent="1" source="FHSyw0mNN9q4Sl2Mrk4T-3" target="FHSyw0mNN9q4Sl2Mrk4T-2">
          <mxGeometry relative="1" as="geometry" />
        </mxCell>
        <mxCell id="FHSyw0mNN9q4Sl2Mrk4T-3" value="USER" style="shape=umlActor;verticalLabelPosition=bottom;verticalAlign=top;html=1;outlineConnect=0;" vertex="1" parent="1">
          <mxGeometry x="390" y="180" width="30" height="60" as="geometry" />
        </mxCell>
        <mxCell id="FHSyw0mNN9q4Sl2Mrk4T-11" value="" style="edgeStyle=orthogonalEdgeStyle;rounded=0;orthogonalLoop=1;jettySize=auto;html=1;" edge="1" parent="1" source="FHSyw0mNN9q4Sl2Mrk4T-8" target="FHSyw0mNN9q4Sl2Mrk4T-10">
          <mxGeometry relative="1" as="geometry" />
        </mxCell>
        <mxCell id="FHSyw0mNN9q4Sl2Mrk4T-8" value="Selects Theatre" style="ellipse;whiteSpace=wrap;html=1;" vertex="1" parent="1">
          <mxGeometry x="800" y="240" width="150" height="80" as="geometry" />
        </mxCell>
        <mxCell id="FHSyw0mNN9q4Sl2Mrk4T-16" value="" style="edgeStyle=orthogonalEdgeStyle;rounded=0;orthogonalLoop=1;jettySize=auto;html=1;" edge="1" parent="1" source="FHSyw0mNN9q4Sl2Mrk4T-10" target="FHSyw0mNN9q4Sl2Mrk4T-15">
          <mxGeometry relative="1" as="geometry" />
        </mxCell>
        <mxCell id="FHSyw0mNN9q4Sl2Mrk4T-10" value="Selects the Movie name" style="ellipse;whiteSpace=wrap;html=1;" vertex="1" parent="1">
          <mxGeometry x="835" y="400" width="155" height="80" as="geometry" />
        </mxCell>
        <mxCell id="FHSyw0mNN9q4Sl2Mrk4T-18" value="" style="edgeStyle=orthogonalEdgeStyle;rounded=0;orthogonalLoop=1;jettySize=auto;html=1;" edge="1" parent="1" source="FHSyw0mNN9q4Sl2Mrk4T-15" target="FHSyw0mNN9q4Sl2Mrk4T-17">
          <mxGeometry relative="1" as="geometry" />
        </mxCell>
        <mxCell id="FHSyw0mNN9q4Sl2Mrk4T-15" value="Selects the seats" style="ellipse;whiteSpace=wrap;html=1;" vertex="1" parent="1">
          <mxGeometry x="1070" y="400" width="155" height="80" as="geometry" />
        </mxCell>
        <mxCell id="FHSyw0mNN9q4Sl2Mrk4T-33" style="edgeStyle=orthogonalEdgeStyle;rounded=0;orthogonalLoop=1;jettySize=auto;html=1;" edge="1" parent="1" source="FHSyw0mNN9q4Sl2Mrk4T-17" target="FHSyw0mNN9q4Sl2Mrk4T-21">
          <mxGeometry relative="1" as="geometry">
            <Array as="points">
              <mxPoint x="1350" y="280" />
            </Array>
          </mxGeometry>
        </mxCell>
        <mxCell id="FHSyw0mNN9q4Sl2Mrk4T-17" value="Enters User details" style="ellipse;whiteSpace=wrap;html=1;" vertex="1" parent="1">
          <mxGeometry x="1305" y="400" width="155" height="80" as="geometry" />
        </mxCell>
        <mxCell id="FHSyw0mNN9q4Sl2Mrk4T-24" value="" style="edgeStyle=orthogonalEdgeStyle;rounded=0;orthogonalLoop=1;jettySize=auto;html=1;" edge="1" parent="1" source="FHSyw0mNN9q4Sl2Mrk4T-21" target="FHSyw0mNN9q4Sl2Mrk4T-23">
          <mxGeometry relative="1" as="geometry" />
        </mxCell>
        <mxCell id="FHSyw0mNN9q4Sl2Mrk4T-21" value="Make Payment" style="ellipse;whiteSpace=wrap;html=1;" vertex="1" parent="1">
          <mxGeometry x="1070" y="240" width="155" height="80" as="geometry" />
        </mxCell>
        <mxCell id="FHSyw0mNN9q4Sl2Mrk4T-23" value="Gets the ticket&amp;nbsp;" style="ellipse;whiteSpace=wrap;html=1;" vertex="1" parent="1">
          <mxGeometry x="1070" y="120" width="155" height="80" as="geometry" />
        </mxCell>
        <mxCell id="FHSyw0mNN9q4Sl2Mrk4T-25" value="includes" style="text;html=1;strokeColor=none;fillColor=none;align=center;verticalAlign=middle;whiteSpace=wrap;rounded=0;" vertex="1" parent="1">
          <mxGeometry x="720" y="240" width="60" height="30" as="geometry" />
        </mxCell>
        <mxCell id="FHSyw0mNN9q4Sl2Mrk4T-26" value="includes" style="text;html=1;strokeColor=none;fillColor=none;align=center;verticalAlign=middle;whiteSpace=wrap;rounded=0;" vertex="1" parent="1">
          <mxGeometry x="920" y="340" width="60" height="30" as="geometry" />
        </mxCell>
        <mxCell id="FHSyw0mNN9q4Sl2Mrk4T-27" value="includes" style="text;html=1;strokeColor=none;fillColor=none;align=center;verticalAlign=middle;whiteSpace=wrap;rounded=0;" vertex="1" parent="1">
          <mxGeometry x="1000" y="400" width="60" height="30" as="geometry" />
        </mxCell>
        <mxCell id="FHSyw0mNN9q4Sl2Mrk4T-28" value="includes" style="text;html=1;strokeColor=none;fillColor=none;align=center;verticalAlign=middle;whiteSpace=wrap;rounded=0;" vertex="1" parent="1">
          <mxGeometry x="1240" y="400" width="60" height="30" as="geometry" />
        </mxCell>
        <mxCell id="FHSyw0mNN9q4Sl2Mrk4T-29" value="includes" style="text;html=1;strokeColor=none;fillColor=none;align=center;verticalAlign=middle;whiteSpace=wrap;rounded=0;" vertex="1" parent="1">
          <mxGeometry x="1360" y="340" width="60" height="30" as="geometry" />
        </mxCell>
        <mxCell id="FHSyw0mNN9q4Sl2Mrk4T-31" value="includes" style="text;html=1;strokeColor=none;fillColor=none;align=center;verticalAlign=middle;whiteSpace=wrap;rounded=0;" vertex="1" parent="1">
          <mxGeometry x="1160" y="210" width="60" height="30" as="geometry" />
        </mxCell>
        <mxCell id="FHSyw0mNN9q4Sl2Mrk4T-38" style="edgeStyle=orthogonalEdgeStyle;rounded=0;orthogonalLoop=1;jettySize=auto;html=1;entryX=0.981;entryY=0.375;entryDx=0;entryDy=0;entryPerimeter=0;" edge="1" parent="1" source="FHSyw0mNN9q4Sl2Mrk4T-34" target="FHSyw0mNN9q4Sl2Mrk4T-21">
          <mxGeometry relative="1" as="geometry">
            <Array as="points">
              <mxPoint x="1380" y="220" />
              <mxPoint x="1222" y="220" />
            </Array>
          </mxGeometry>
        </mxCell>
        <mxCell id="FHSyw0mNN9q4Sl2Mrk4T-34" value="UPI" style="ellipse;whiteSpace=wrap;html=1;" vertex="1" parent="1">
          <mxGeometry x="1340" y="150" width="80" height="40" as="geometry" />
        </mxCell>
        <mxCell id="FHSyw0mNN9q4Sl2Mrk4T-40" style="edgeStyle=orthogonalEdgeStyle;rounded=0;orthogonalLoop=1;jettySize=auto;html=1;exitX=0;exitY=0.5;exitDx=0;exitDy=0;" edge="1" parent="1" source="FHSyw0mNN9q4Sl2Mrk4T-36" target="FHSyw0mNN9q4Sl2Mrk4T-21">
          <mxGeometry relative="1" as="geometry">
            <Array as="points">
              <mxPoint x="1510" y="190" />
              <mxPoint x="1510" y="270" />
            </Array>
          </mxGeometry>
        </mxCell>
        <mxCell id="FHSyw0mNN9q4Sl2Mrk4T-36" value="Credit" style="ellipse;whiteSpace=wrap;html=1;" vertex="1" parent="1">
          <mxGeometry x="1440" y="170" width="80" height="40" as="geometry" />
        </mxCell>
        <mxCell id="FHSyw0mNN9q4Sl2Mrk4T-39" style="edgeStyle=orthogonalEdgeStyle;rounded=0;orthogonalLoop=1;jettySize=auto;html=1;exitX=0;exitY=0.5;exitDx=0;exitDy=0;entryX=1;entryY=0;entryDx=0;entryDy=0;" edge="1" parent="1" source="FHSyw0mNN9q4Sl2Mrk4T-37" target="FHSyw0mNN9q4Sl2Mrk4T-21">
          <mxGeometry relative="1" as="geometry" />
        </mxCell>
        <mxCell id="FHSyw0mNN9q4Sl2Mrk4T-37" value="Debit" style="ellipse;whiteSpace=wrap;html=1;" vertex="1" parent="1">
          <mxGeometry x="1370" y="220" width="80" height="40" as="geometry" />
        </mxCell>
        <mxCell id="FHSyw0mNN9q4Sl2Mrk4T-41" value="extends" style="text;html=1;strokeColor=none;fillColor=none;align=center;verticalAlign=middle;whiteSpace=wrap;rounded=0;" vertex="1" parent="1">
          <mxGeometry x="1270" y="190" width="60" height="30" as="geometry" />
        </mxCell>
        <mxCell id="FHSyw0mNN9q4Sl2Mrk4T-42" value="extends" style="text;html=1;strokeColor=none;fillColor=none;align=center;verticalAlign=middle;whiteSpace=wrap;rounded=0;" vertex="1" parent="1">
          <mxGeometry x="1300" y="230" width="60" height="30" as="geometry" />
        </mxCell>
        <mxCell id="FHSyw0mNN9q4Sl2Mrk4T-43" value="extends" style="text;html=1;strokeColor=none;fillColor=none;align=center;verticalAlign=middle;whiteSpace=wrap;rounded=0;" vertex="1" parent="1">
          <mxGeometry x="1440" y="270" width="60" height="30" as="geometry" />
        </mxCell>
      </root>
    </mxGraphModel>
  </diagram>
</mxfile>
